HIERARCHY
ROOT mixamorig:Hips
{
	OFFSET -0.000008 104.274872 1.554316
	CHANNELS 6 Xposition Yposition Zposition Xrotation Yrotation Zrotation
	JOINT mixamorig:Spine
	{
		OFFSET -0.000005 10.181595 0.131519
		CHANNELS 6 Xposition Yposition Zposition Xrotation Yrotation Zrotation
		JOINT mixamorig:Spine1
		{
			OFFSET -0.000000 9.893959 -1.470707
			CHANNELS 6 Xposition Yposition Zposition Xrotation Yrotation Zrotation
			JOINT mixamorig:Spine2
			{
				OFFSET -0.000000 9.220757 -1.370641
				CHANNELS 6 Xposition Yposition Zposition Xrotation Yrotation Zrotation
				JOINT mixamorig:Neck
				{
					OFFSET 0.000001 16.740417 -2.049036
					CHANNELS 6 Xposition Yposition Zposition Xrotation Yrotation Zrotation
					JOINT mixamorig:Head
					{
						OFFSET 0.000000 9.617874 1.685006
						CHANNELS 6 Xposition Yposition Zposition Xrotation Yrotation Zrotation
						JOINT mixamorig:HeadTop_End
						{
							OFFSET 0.000002 22.037354 7.501101
							CHANNELS 6 Xposition Yposition Zposition Xrotation Yrotation Zrotation
							End Site
							{
								OFFSET 0.000168 2310.654297 -282.823242
							}
						}
					}
				}
				JOINT mixamorig:RightShoulder
				{
					OFFSET -4.569970 11.014908 -2.160885
					CHANNELS 6 Xposition Yposition Zposition Xrotation Yrotation Zrotation
					JOINT mixamorig:RightArm
					{
						OFFSET -10.592851 -0.524811 -2.232101
						CHANNELS 6 Xposition Yposition Zposition Xrotation Yrotation Zrotation
						JOINT mixamorig:RightForeArm
						{
							OFFSET -27.841511 0.000031 -0.000004
							CHANNELS 6 Xposition Yposition Zposition Xrotation Yrotation Zrotation
							JOINT mixamorig:RightHand
							{
								OFFSET -28.328831 -0.000015 0.000015
								CHANNELS 6 Xposition Yposition Zposition Xrotation Yrotation Zrotation
								JOINT mixamorig:RightHandThumb1
								{
									OFFSET -2.464806 -1.573990 2.681852
									CHANNELS 6 Xposition Yposition Zposition Xrotation Yrotation Zrotation
									JOINT mixamorig:RightHandThumb2
									{
										OFFSET -3.215179 -1.872803 1.924282
										CHANNELS 6 Xposition Yposition Zposition Xrotation Yrotation Zrotation
										JOINT mixamorig:RightHandThumb3
										{
											OFFSET -2.654831 -1.527969 1.512609
											CHANNELS 6 Xposition Yposition Zposition Xrotation Yrotation Zrotation
											JOINT mixamorig:RightHandThumb4
											{
												OFFSET -2.018814 -1.152008 1.108052
												CHANNELS 6 Xposition Yposition Zposition Xrotation Yrotation Zrotation
												End Site
												{
													OFFSET -188.809540 -114.533607 132.431396
												}
											}
										}
									}
								}
								JOINT mixamorig:RightHandIndex1
								{
									OFFSET -9.108284 -0.517868 2.259835
									CHANNELS 6 Xposition Yposition Zposition Xrotation Yrotation Zrotation
									JOINT mixamorig:RightHandIndex2
									{
										OFFSET -3.699989 0.000000 0.001215
										CHANNELS 6 Xposition Yposition Zposition Xrotation Yrotation Zrotation
										JOINT mixamorig:RightHandIndex3
										{
											OFFSET -2.850006 0.000031 -0.000522
											CHANNELS 6 Xposition Yposition Zposition Xrotation Yrotation Zrotation
											JOINT mixamorig:RightHandIndex4
											{
												OFFSET -2.772186 -0.000015 -0.000020
												CHANNELS 6 Xposition Yposition Zposition Xrotation Yrotation Zrotation
												End Site
												{
													OFFSET -277.218445 0.000000 -0.050231
												}
											}
										}
									}
								}
								JOINT mixamorig:RightHandMiddle1
								{
									OFFSET -9.532516 -0.000031 -0.000023
									CHANNELS 6 Xposition Yposition Zposition Xrotation Yrotation Zrotation
									JOINT mixamorig:RightHandMiddle2
									{
										OFFSET -3.700005 -0.000015 0.003713
										CHANNELS 6 Xposition Yposition Zposition Xrotation Yrotation Zrotation
										JOINT mixamorig:RightHandMiddle3
										{
											OFFSET -2.949974 0.000015 -0.002054
											CHANNELS 6 Xposition Yposition Zposition Xrotation Yrotation Zrotation
											JOINT mixamorig:RightHandMiddle4
											{
												OFFSET -2.946640 0.000000 -0.000156
												CHANNELS 6 Xposition Yposition Zposition Xrotation Yrotation Zrotation
												End Site
												{
													OFFSET -294.664337 0.000000 -0.113670
												}
											}
										}
									}
								}
								JOINT mixamorig:RightHandRing1
								{
									OFFSET -9.103600 -0.043076 -1.865134
									CHANNELS 6 Xposition Yposition Zposition Xrotation Yrotation Zrotation
									JOINT mixamorig:RightHandRing2
									{
										OFFSET -3.379288 0.000000 -0.001055
										CHANNELS 6 Xposition Yposition Zposition Xrotation Yrotation Zrotation
										JOINT mixamorig:RightHandRing3
										{
											OFFSET -2.889687 -0.000015 0.000379
											CHANNELS 6 Xposition Yposition Zposition Xrotation Yrotation Zrotation
											JOINT mixamorig:RightHandRing4
											{
												OFFSET -2.638809 -0.000015 0.000941
												CHANNELS 6 Xposition Yposition Zposition Xrotation Yrotation Zrotation
												End Site
												{
													OFFSET -263.880371 0.000000 0.516020
												}
											}
										}
									}
								}
								JOINT mixamorig:RightHandPinky1
								{
									OFFSET -8.076683 -0.486710 -3.806280
									CHANNELS 6 Xposition Yposition Zposition Xrotation Yrotation Zrotation
									JOINT mixamorig:RightHandPinky2
									{
										OFFSET -3.600014 -0.000015 -0.003747
										CHANNELS 6 Xposition Yposition Zposition Xrotation Yrotation Zrotation
										JOINT mixamorig:RightHandPinky3
										{
											OFFSET -2.099983 0.000000 -0.005739
											CHANNELS 6 Xposition Yposition Zposition Xrotation Yrotation Zrotation
											JOINT mixamorig:RightHandPinky4
											{
												OFFSET -2.115768 -0.000031 -0.003680
												CHANNELS 6 Xposition Yposition Zposition Xrotation Yrotation Zrotation
												End Site
												{
													OFFSET -211.577087 0.000000 -0.350686
												}
											}
										}
									}
								}
							}
						}
					}
				}
				JOINT mixamorig:LeftShoulder
				{
					OFFSET 4.570447 11.014725 -2.160855
					CHANNELS 6 Xposition Yposition Zposition Xrotation Yrotation Zrotation
					JOINT mixamorig:LeftArm
					{
						OFFSET 10.592371 -0.524597 -2.232119
						CHANNELS 6 Xposition Yposition Zposition Xrotation Yrotation Zrotation
						JOINT mixamorig:LeftForeArm
						{
							OFFSET 27.841532 -0.000031 0.000026
							CHANNELS 6 Xposition Yposition Zposition Xrotation Yrotation Zrotation
							JOINT mixamorig:LeftHand
							{
								OFFSET 28.328846 -0.000061 0.000022
								CHANNELS 6 Xposition Yposition Zposition Xrotation Yrotation Zrotation
								JOINT mixamorig:LeftHandThumb1
								{
									OFFSET 2.466141 -1.576172 2.681732
									CHANNELS 6 Xposition Yposition Zposition Xrotation Yrotation Zrotation
									JOINT mixamorig:LeftHandThumb2
									{
										OFFSET 3.217812 -1.872070 1.916482
										CHANNELS 6 Xposition Yposition Zposition Xrotation Yrotation Zrotation
										JOINT mixamorig:LeftHandThumb3
										{
											OFFSET 2.656029 -1.528778 1.514513
											CHANNELS 6 Xposition Yposition Zposition Xrotation Yrotation Zrotation
											JOINT mixamorig:LeftHandThumb4
											{
												OFFSET 2.020889 -1.154053 1.115139
												CHANNELS 6 Xposition Yposition Zposition Xrotation Yrotation Zrotation
												End Site
												{
													OFFSET 190.885437 -115.081749 130.048782
												}
											}
										}
									}
								}
								JOINT mixamorig:LeftHandIndex1
								{
									OFFSET 9.109314 -0.518021 2.259871
									CHANNELS 6 Xposition Yposition Zposition Xrotation Yrotation Zrotation
									JOINT mixamorig:LeftHandIndex2
									{
										OFFSET 3.699989 0.000000 -0.000322
										CHANNELS 6 Xposition Yposition Zposition Xrotation Yrotation Zrotation
										JOINT mixamorig:LeftHandIndex3
										{
											OFFSET 2.850006 0.000000 0.000352
											CHANNELS 6 Xposition Yposition Zposition Xrotation Yrotation Zrotation
											JOINT mixamorig:LeftHandIndex4
											{
												OFFSET 2.774864 -0.000031 -0.000027
												CHANNELS 6 Xposition Yposition Zposition Xrotation Yrotation Zrotation
												End Site
												{
													OFFSET 277.486267 0.000000 -0.009857
												}
											}
										}
									}
								}
								JOINT mixamorig:LeftHandMiddle1
								{
									OFFSET 9.533394 0.000061 0.000044
									CHANNELS 6 Xposition Yposition Zposition Xrotation Yrotation Zrotation
									JOINT mixamorig:LeftHandMiddle2
									{
										OFFSET 3.699989 -0.000015 -0.000231
										CHANNELS 6 Xposition Yposition Zposition Xrotation Yrotation Zrotation
										JOINT mixamorig:LeftHandMiddle3
										{
											OFFSET 2.949997 -0.000015 -0.000059
											CHANNELS 6 Xposition Yposition Zposition Xrotation Yrotation Zrotation
											JOINT mixamorig:LeftHandMiddle4
											{
												OFFSET 2.952896 0.000031 0.000063
												CHANNELS 6 Xposition Yposition Zposition Xrotation Yrotation Zrotation
												End Site
												{
													OFFSET 295.289337 0.000000 0.022810
												}
											}
										}
									}
								}
								JOINT mixamorig:LeftHandRing1
								{
									OFFSET 9.104523 -0.042999 -1.865074
									CHANNELS 6 Xposition Yposition Zposition Xrotation Yrotation Zrotation
									JOINT mixamorig:LeftHandRing2
									{
										OFFSET 3.150009 -0.000031 0.000043
										CHANNELS 6 Xposition Yposition Zposition Xrotation Yrotation Zrotation
										JOINT mixamorig:LeftHandRing3
										{
											OFFSET 2.949982 -0.000015 0.000040
											CHANNELS 6 Xposition Yposition Zposition Xrotation Yrotation Zrotation
											JOINT mixamorig:LeftHandRing4
											{
												OFFSET 2.644348 0.000000 0.000057
												CHANNELS 6 Xposition Yposition Zposition Xrotation Yrotation Zrotation
												End Site
												{
													OFFSET 264.434631 0.000000 0.012105
												}
											}
										}
									}
								}
								JOINT mixamorig:LeftHandPinky1
								{
									OFFSET 8.077789 -0.486847 -3.806259
									CHANNELS 6 Xposition Yposition Zposition Xrotation Yrotation Zrotation
									JOINT mixamorig:LeftHandPinky2
									{
										OFFSET 3.599953 0.000031 0.014727
										CHANNELS 6 Xposition Yposition Zposition Xrotation Yrotation Zrotation
										JOINT mixamorig:LeftHandPinky3
										{
											OFFSET 2.100021 0.000015 0.007705
											CHANNELS 6 Xposition Yposition Zposition Xrotation Yrotation Zrotation
											JOINT mixamorig:LeftHandPinky4
											{
												OFFSET 2.125504 0.000031 0.007517
												CHANNELS 6 Xposition Yposition Zposition Xrotation Yrotation Zrotation
												End Site
												{
													OFFSET 212.550781 0.000000 0.625752
												}
											}
										}
									}
								}
							}
						}
					}
				}
			}
		}
	}
	JOINT mixamorig:RightUpLeg
	{
		OFFSET -8.207787 -6.751648 -1.599560
		CHANNELS 6 Xposition Yposition Zposition Xrotation Yrotation Zrotation
		JOINT mixamorig:RightLeg
		{
			OFFSET -0.000002 -44.370117 0.345942
			CHANNELS 6 Xposition Yposition Zposition Xrotation Yrotation Zrotation
			JOINT mixamorig:RightFoot
			{
				OFFSET 0.000003 -44.423679 -3.043532
				CHANNELS 6 Xposition Yposition Zposition Xrotation Yrotation Zrotation
				JOINT mixamorig:RightToeBase
				{
					OFFSET -0.000002 -8.728671 10.710558
					CHANNELS 6 Xposition Yposition Zposition Xrotation Yrotation Zrotation
					JOINT mixamorig:RightToe_End
					{
						OFFSET -0.000001 -0.000679 9.278119
						CHANNELS 6 Xposition Yposition Zposition Xrotation Yrotation Zrotation
						End Site
						{
							OFFSET 0.000000 -0.067690 927.812134
						}
					}
				}
			}
		}
	}
	JOINT mixamorig:LeftUpLeg
	{
		OFFSET 8.207793 -6.751686 -1.599556
		CHANNELS 6 Xposition Yposition Zposition Xrotation Yrotation Zrotation
		JOINT mixamorig:LeftLeg
		{
			OFFSET -0.000004 -44.370014 0.346954
			CHANNELS 6 Xposition Yposition Zposition Xrotation Yrotation Zrotation
			JOINT mixamorig:LeftFoot
			{
				OFFSET -0.000001 -44.423672 -3.044401
				CHANNELS 6 Xposition Yposition Zposition Xrotation Yrotation Zrotation
				JOINT mixamorig:LeftToeBase
				{
					OFFSET -0.000002 -8.728669 10.710558
					CHANNELS 6 Xposition Yposition Zposition Xrotation Yrotation Zrotation
					JOINT mixamorig:LeftToe_End
					{
						OFFSET -0.000003 -0.000679 9.278133
						CHANNELS 6 Xposition Yposition Zposition Xrotation Yrotation Zrotation
						End Site
						{
							OFFSET 0.000000 -0.068021 927.813477
						}
					}
				}
			}
		}
	}
}
MOTION
Frames: 3
Frame Time: 0.033333
0.000006 104.270477 1.554256 0.000010 0.000003 -0.000113 -0.000005 10.181587 0.131522 0.000001 -0.000003 0.000084 -0.000000 9.893967 -1.470711 0.000001 0.000000 -0.000000 -0.000000 9.220802 -1.370642 0.000000 -0.000000 -0.000000 0.000001 16.740433 -2.049030 0.000000 -0.000000 -0.000000 0.000000 9.617859 1.685014 0.000000 0.000000 0.000000 0.000002 22.037384 7.501101 0.000000 -0.000000 0.000000 -4.569968 11.014880 -2.160881 0.000008 0.000001 -0.000038 -10.592883 -0.524734 -2.231955 72.813628 21.723951 -16.108060 -27.841516 0.000048 0.000539 -51.705997 108.219088 67.614754 -28.328827 0.000020 0.000029 -0.000316 -0.000045 0.000010 -2.464401 -1.573845 2.682365 -39.540040 -156.981229 8.602633 -3.215259 -1.872539 1.924631 149.001997 33.440094 24.511814 -2.654955 -1.527855 1.513064 147.132097 27.549763 -30.279209 -2.018841 -1.152024 1.108063 -0.000000 -0.000002 -0.000001 -9.108390 -0.517548 2.260120 97.305805 17.431095 -19.817763 -3.700061 0.000314 0.001504 94.020286 13.829642 -14.799572 -2.850086 0.000365 -0.000270 93.725154 11.479143 -12.244162 -2.772161 -0.000014 -0.000019 -0.000002 0.000000 -0.000001 -9.532599 0.000268 0.000207 88.355074 17.967477 -17.607884 -3.700070 0.000326 0.003949 90.266277 11.396080 -11.354483 -2.950054 0.000331 -0.001803 93.754462 11.785646 -12.570601 -2.946649 -0.000013 -0.000151 -0.000006 0.000000 0.000001 -9.103701 -0.042748 -1.864874 88.168194 19.357034 -18.714662 -3.379320 0.000326 -0.000837 88.776511 7.721407 -7.575305 -2.889743 0.000353 0.000643 96.630368 5.243164 -5.936796 -2.638815 -0.000003 0.000937 -0.000001 -0.000001 -0.000001 -8.076739 -0.486383 -3.806029 83.691940 18.042884 -16.047780 -3.600054 0.000290 -0.003521 86.987233 7.761035 -7.030407 -2.100006 0.000328 -0.005483 89.454134 4.483245 -4.227117 -2.115782 -0.000071 -0.003678 -0.000005 0.000001 -0.000004 4.570446 11.014691 -2.160851 -0.000018 0.000010 -0.000021 10.592441 -0.524539 -2.232361 50.699196 -38.496541 18.786541 27.841816 0.000017 -0.000167 151.508499 -79.717440 146.171881 28.328817 -0.000029 0.000024 0.000020 -0.000087 0.000003 2.466201 -1.576009 2.681939 85.743251 184.907728 -156.521476 3.217849 -1.871954 1.916544 232.666296 28.645873 57.165569 2.656035 -1.528774 1.514616 215.546345 36.883872 77.918661 2.020891 -1.154050 1.115150 0.000001 0.000003 0.000002 9.109061 -0.517906 2.259976 187.405446 -14.408829 234.189100 3.699838 -0.000033 -0.000242 179.901227 -15.237638 179.367284 2.850080 0.000024 0.000405 174.055172 -10.443394 120.777374 2.774882 -0.000025 -0.000027 -0.000003 0.000004 0.000002 9.533123 0.000201 0.000164 189.800206 -15.959160 242.884423 3.699703 0.000113 -0.000130 186.190028 -13.780888 228.202221 2.949767 0.000081 0.000031 182.970796 -8.077922 220.349798 2.952870 -0.000014 0.000069 0.000003 -0.000002 -0.000002 9.104276 -0.042823 -1.864960 191.002169 -13.255710 259.307640 3.149693 0.000364 0.000169 190.329368 -8.986457 277.990257 2.949843 0.000439 0.000143 189.183659 -3.078142 322.995056 2.644320 0.000030 0.000051 0.000000 -0.000001 -0.000001 8.077567 -0.486530 -3.806128 195.122672 -9.083584 297.230981 3.599813 0.000465 0.014828 190.282213 -3.198760 -37.288366 2.100051 0.000351 0.007800 188.994367 1.879480 17.791557 2.125501 -0.000041 0.007503 0.000001 -0.000004 -0.000002 -8.207786 -6.751667 -1.599560 -0.077001 -0.000003 0.000080 -0.000002 -44.370110 0.345938 0.153719 -0.000000 -0.000000 0.000000 -44.423679 -3.043532 -0.076700 0.000000 -0.000002 -0.000006 -8.728667 10.710559 -0.000009 -0.000000 -0.000000 -0.000001 -0.000679 9.278123 0.000000 -0.000000 -0.000000 8.207792 -6.751710 -1.599556 -0.074518 -0.000003 0.000081 -0.000002 -44.370014 0.346960 0.148822 0.000002 0.000000 -0.000001 -44.423664 -3.044403 -0.074314 0.000000 -0.000002 -0.000004 -8.728671 10.710558 0.000007 -0.000000 -0.000000 0.000000 -0.000680 9.278137 -0.000000 0.000000 -0.000001 
0.000006 104.270477 1.554256 0.000010 0.000003 -0.000113 -0.000005 10.181587 0.131522 0.000001 -0.000003 0.000084 -0.000000 9.893967 -1.470711 0.000001 0.000000 -0.000000 -0.000000 9.220802 -1.370642 0.000000 -0.000000 -0.000000 0.000001 16.740433 -2.049030 0.000000 -0.000000 -0.000000 0.000000 9.617859 1.685014 0.000000 0.000000 0.000000 0.000002 22.037384 7.501101 0.000000 -0.000000 0.000000 -4.569968 11.014880 -2.160881 0.000008 0.000001 -0.000038 -10.592883 -0.524706 -2.231972 72.695739 15.706478 -11.591016 -27.841524 0.000012 0.000575 -51.490409 108.416385 67.552579 -28.328836 0.000004 0.000023 -0.000319 -0.000044 0.000007 -2.464403 -1.573831 2.682349 -41.911677 -157.999283 3.583283 -3.215264 -1.872519 1.924621 149.103385 33.510810 24.836304 -2.654962 -1.527863 1.513064 147.530870 27.305459 -32.201081 -2.018838 -1.152002 1.108072 -0.000004 -0.000004 0.000000 -9.108372 -0.517556 2.260117 97.477168 18.574459 -21.170697 -3.700081 0.000321 0.001505 93.957742 14.607565 -15.615062 -2.850087 0.000361 -0.000261 93.301511 12.130183 -12.843249 -2.772158 -0.000014 -0.000017 0.000003 0.000000 0.000001 -9.532597 0.000267 0.000216 88.064026 18.026305 -17.577048 -3.700055 0.000323 0.003959 90.496175 11.853110 -11.860251 -2.950065 0.000333 -0.001822 94.873957 12.244985 -13.316410 -2.946635 0.000001 -0.000152 0.000004 -0.000000 0.000001 -9.103692 -0.042770 -1.864900 87.936705 19.918944 -19.183406 -3.379299 0.000324 -0.000834 88.557426 7.571299 -7.400036 -2.889754 0.000356 0.000639 97.305778 5.069645 -5.810398 -2.638811 -0.000012 0.000943 0.000002 -0.000001 0.000001 -8.076757 -0.486388 -3.806035 83.707800 18.475371 -16.441008 -3.600018 0.000288 -0.003542 86.041990 7.169998 -6.366170 -2.100009 0.000327 -0.005517 88.981300 4.052642 -3.770727 -2.115766 -0.000040 -0.003681 0.000001 -0.000001 -0.000001 4.570446 11.014691 -2.160851 -0.000018 0.000010 -0.000021 10.592453 -0.524530 -2.232374 52.339309 -42.457600 21.614115 27.841824 -0.000014 -0.000168 155.697208 -78.794312 150.619823 28.328831 -0.000030 0.000028 0.000020 -0.000090 0.000003 2.466210 -1.576019 2.681929 87.832900 177.336955 -154.245506 3.217828 -1.872002 1.916522 230.305673 40.850132 66.650202 2.655972 -1.528818 1.514605 204.372989 48.188491 97.259373 2.020891 -1.154050 1.115144 0.000001 0.000004 0.000003 9.109048 -0.517784 2.259982 190.961912 -11.569207 266.888385 3.699748 0.000043 -0.000236 183.467651 -11.550667 213.413045 2.850041 0.000000 0.000410 176.633678 -7.318391 130.622887 2.774888 -0.000019 -0.000027 -0.000001 -0.000002 0.000003 9.533124 0.000260 0.000175 193.050120 -15.008803 261.929067 3.699687 0.000169 -0.000124 188.030422 -12.125880 246.912814 2.949715 0.000154 0.000027 183.523126 -5.631560 244.048560 2.952863 -0.000027 0.000067 0.000002 -0.000001 -0.000002 9.104260 -0.042761 -1.864950 193.607299 -12.606039 274.412521 3.149740 0.000408 0.000150 190.854733 -7.304753 292.205929 2.949958 0.000381 0.000126 187.727421 -0.494287 352.670698 2.644328 0.000014 0.000058 -0.000001 0.000002 -0.000001 8.077623 -0.486522 -3.806125 197.506231 -7.798896 310.895458 3.599859 0.000471 0.014839 191.699709 -2.039830 -22.883497 2.100094 0.000304 0.007799 190.629405 3.727392 33.429251 2.125505 0.000002 0.007516 0.000001 0.000006 -0.000001 -8.207786 -6.751667 -1.599560 -0.077001 -0.000003 0.000080 -0.000002 -44.370110 0.345938 0.153719 -0.000000 -0.000000 0.000000 -44.423679 -3.043532 -0.076700 0.000000 -0.000002 -0.000006 -8.728667 10.710559 -0.000009 -0.000000 -0.000000 -0.000001 -0.000679 9.278123 0.000000 -0.000000 -0.000000 8.207792 -6.751710 -1.599556 -0.074518 -0.000003 0.000081 -0.000002 -44.370014 0.346960 0.148822 0.000002 0.000000 -0.000001 -44.423664 -3.044403 -0.074314 0.000000 -0.000002 -0.000004 -8.728671 10.710558 0.000007 -0.000000 -0.000000 0.000000 -0.000680 9.278137 -0.000000 0.000000 -0.000001 
0.000006 104.270477 1.554256 0.000010 0.000003 -0.000113 -0.000005 10.181587 0.131522 0.000001 -0.000003 0.000084 -0.000000 9.893967 -1.470711 0.000001 0.000000 -0.000000 -0.000000 9.220802 -1.370642 0.000000 -0.000000 -0.000000 0.000001 16.740433 -2.049030 0.000000 -0.000000 -0.000000 0.000000 9.617859 1.685014 0.000000 0.000000 0.000000 0.000002 22.037384 7.501101 0.000000 -0.000000 0.000000 -4.569968 11.014880 -2.160881 0.000008 0.000001 -0.000038 -10.592877 -0.524730 -2.231947 72.535796 21.352317 -15.750367 -27.841528 0.000018 0.000546 -51.807398 106.902713 66.462310 -28.328835 0.000006 0.000031 -0.000321 -0.000046 0.000007 -2.464414 -1.573794 2.682334 -45.347600 -160.564907 -3.928880 -3.215256 -1.872514 1.924614 149.718771 33.129962 20.608228 -2.654956 -1.527879 1.513070 147.352821 27.391567 -31.599740 -2.018827 -1.151998 1.108065 -0.000003 -0.000003 0.000002 -9.108399 -0.517545 2.260123 96.910030 18.058814 -20.387049 -3.700081 0.000320 0.001504 93.223886 14.334006 -15.129574 -2.850108 0.000356 -0.000280 92.314433 11.914831 -12.401387 -2.772162 -0.000000 -0.000019 -0.000000 0.000000 -0.000001 -9.532588 0.000278 0.000199 87.631354 17.143705 -16.597233 -3.700067 0.000332 0.003959 89.839315 11.529843 -11.403978 -2.950063 0.000329 -0.001823 93.847591 11.895528 -12.708251 -2.946641 0.000001 -0.000157 -0.000002 0.000000 0.000001 -9.103708 -0.042762 -1.864878 88.607361 19.093046 -18.598260 -3.379316 0.000336 -0.000846 87.904582 7.164389 -6.923886 -2.889736 0.000363 0.000636 95.729671 4.754610 -5.303670 -2.638809 -0.000028 0.000941 0.000001 0.000000 0.000000 -8.076751 -0.486387 -3.806048 84.476408 17.660043 -15.918726 -3.600008 0.000279 -0.003533 86.049366 6.279325 -5.539369 -2.099993 0.000325 -0.005517 88.403678 3.215922 -2.921795 -2.115771 -0.000054 -0.003674 0.000002 -0.000001 -0.000002 4.570446 11.014691 -2.160851 -0.000018 0.000010 -0.000021 10.592488 -0.524517 -2.232386 59.062866 -51.792081 30.755591 27.841831 0.000012 -0.000167 167.284283 -76.426368 163.889351 28.328840 -0.000029 0.000021 0.000021 -0.000090 -0.000000 2.466203 -1.576051 2.681920 91.116411 169.226816 -152.620755 3.217804 -1.872034 1.916524 229.078056 47.893993 72.037377 2.655957 -1.528827 1.514605 198.488658 52.846304 106.907091 2.020899 -1.154056 1.115146 0.000001 0.000001 0.000002 9.109056 -0.517734 2.259988 194.331299 -10.794411 286.161977 3.699718 0.000162 -0.000220 187.347485 -11.112911 246.884400 2.849854 -0.000006 0.000425 179.659670 -7.297613 174.648893 2.774875 -0.000030 -0.000030 -0.000000 -0.000002 -0.000001 9.533139 0.000329 0.000175 196.137283 -14.386900 276.643890 3.699695 0.000240 -0.000115 190.749097 -11.873960 264.268188 2.949757 0.000286 0.000034 186.142012 -5.415453 277.203391 2.952863 -0.000009 0.000055 -0.000000 -0.000001 -0.000002 9.104304 -0.042719 -1.864946 196.951524 -12.827429 285.941061 3.149800 0.000433 0.000168 194.205200 -7.061839 307.305046 2.949985 0.000369 0.000137 190.540886 -0.141363 358.451879 2.644331 0.000029 0.000051 -0.000001 -0.000001 0.000001 8.077619 -0.486518 -3.806118 201.278189 -8.920160 313.723866 3.599892 0.000458 0.014854 196.077287 -1.967586 -16.373674 2.100085 0.000334 0.007813 194.489705 4.207552 28.502939 2.125505 -0.000031 0.007528 0.000003 -0.000002 -0.000000 -8.207786 -6.751667 -1.599560 -0.077001 -0.000003 0.000080 -0.000002 -44.370110 0.345938 0.153719 -0.000000 -0.000000 0.000000 -44.423679 -3.043532 -0.076700 0.000000 -0.000002 -0.000006 -8.728667 10.710559 -0.000009 -0.000000 -0.000000 -0.000001 -0.000679 9.278123 0.000000 -0.000000 -0.000000 8.207792 -6.751710 -1.599556 -0.074518 -0.000003 0.000081 -0.000002 -44.370014 0.346960 0.148822 0.000002 0.000000 -0.000001 -44.423664 -3.044403 -0.074314 0.000000 -0.000002 -0.000004 -8.728671 10.710558 0.000007 -0.000000 -0.000000 0.000000 -0.000680 9.278137 -0.000000 0.000000 -0.000001 
